<svg width="24" height="25" viewBox="0 0 24 25" fill="none" xmlns="http://www.w3.org/2000/svg">
<g clip-path="url(#clip0_21_102)">
<path d="M5.5918 7.58358C6.37372 7.09791 7.27197 6.83177 8.19221 6.81306C8.49658 6.81348 8.8339 6.85756 9.20292 6.94648C9.4683 7.02218 9.79863 7.1429 10.2268 7.30279C10.4862 7.40281 10.6894 7.48413 10.8433 7.54571L10.8606 7.55262L10.8787 7.55988C11.0074 7.61138 11.1191 7.65609 11.1909 7.67942C11.5415 7.80658 11.8625 7.87206 12.141 7.87206C12.3754 7.87206 12.6587 7.80219 12.9192 7.7232L12.929 7.72023L12.9386 7.71683C12.9568 7.71043 12.9775 7.70326 13.0005 7.69525C13.154 7.64198 13.4147 7.55149 13.7636 7.4026C13.9989 7.31676 14.2148 7.23424 14.3975 7.1644C14.5009 7.12487 14.5938 7.0894 14.6735 7.05968C15.0409 6.95145 15.3679 6.86064 15.6507 6.81559C15.9951 6.76133 16.3446 6.74697 16.6923 6.77281L16.6964 6.77307C17.3137 6.81342 17.9217 6.94395 18.5011 7.16051C19.2929 7.4801 19.9488 7.94607 20.4694 8.58187C20.3378 8.68162 20.2108 8.78762 20.0891 8.89953C19.5659 9.36398 19.1202 9.90896 18.7687 10.5139L18.7686 10.5139L18.7643 10.5216C18.2977 11.3613 18.0558 12.3073 18.062 13.268L18.062 13.268L18.062 13.2717C18.0789 14.4323 18.3779 15.4735 18.9784 16.3792C19.4144 17.0415 19.9808 17.608 20.643 18.0442C20.8261 18.1675 20.9997 18.2726 21.1689 18.3611C21.0893 18.5886 21.0049 18.8108 20.9119 19.0306C20.5783 19.8105 20.1741 20.5582 19.7043 21.2645C19.2734 21.8899 18.9446 22.3427 18.701 22.6374C18.3172 23.0918 17.9639 23.4193 17.6243 23.6396L17.6243 23.6396L17.6204 23.6421C17.2667 23.8767 16.8478 24.0025 16.422 24.0025H16.4132L16.4043 24.0028C16.1073 24.0142 15.8103 23.9788 15.5242 23.898C15.2492 23.8049 14.9806 23.7052 14.7186 23.5929C14.4081 23.4506 14.0881 23.3303 13.7609 23.2327L13.7524 23.2302L13.7438 23.228C12.9068 23.013 12.0291 23.0116 11.1914 23.2239L11.1842 23.2257L11.1771 23.2277C10.849 23.3222 10.53 23.4333 10.2131 23.5708L10.1723 23.5879C9.77032 23.7568 9.53443 23.8559 9.40453 23.8971C9.12275 23.9792 8.83113 24.0308 8.53687 24.0489C8.18894 24.0469 7.85641 23.9644 7.51848 23.7891L7.33418 23.6665C6.90227 23.3792 6.51948 23.0241 6.20051 22.615L6.1961 22.6093L6.19152 22.6038C5.81899 22.1555 5.47383 21.685 5.15791 21.1951L5.15804 21.1951L5.15122 21.1851C4.41122 20.101 3.83089 18.9161 3.42804 17.6669L3.42806 17.6669L3.42661 17.6625C2.94049 16.2049 2.70782 14.8164 2.70782 13.4645C2.70782 11.9615 3.03253 10.6727 3.65032 9.60163L3.65042 9.60169L3.65544 9.59253C4.10855 8.76426 4.77474 8.0721 5.5851 7.58767L5.58513 7.58772L5.5918 7.58358ZM16.0649 2.41529C15.852 3.00239 15.541 3.54913 15.1453 4.03226C14.7458 4.50616 14.2558 4.89562 13.7039 5.17784L13.4908 5.28683C13.1052 5.45309 12.7394 5.54428 12.3844 5.56778C12.378 5.1314 12.4706 4.66748 12.6629 4.1482C12.8727 3.58496 13.1825 3.06428 13.5775 2.61127C13.994 2.1353 14.4993 1.74516 15.0651 1.46273L15.0652 1.46276L15.0703 1.46013C15.5109 1.2333 15.9257 1.08687 16.3172 1.01351C16.3158 1.4646 16.2351 1.92222 16.0649 2.41529Z" fill="black" stroke="black" stroke-width="0.923077"/>
</g>
<defs>
<clipPath id="clip0_21_102">
<rect width="24" height="24" fill="white" transform="translate(0 0.5)"/>
</clipPath>
</defs>
</svg>
