<svg width="24" height="25" viewBox="0 0 24 25" fill="none" xmlns="http://www.w3.org/2000/svg">
<path d="M5.05345 12.5V12.5001C5.05353 13.304 5.19021 14.0774 5.44282 14.7969L4.81062 17.157L2.66756 17.2023C1.95421 15.7894 1.55242 14.1925 1.55242 12.5C1.55242 10.8876 1.91704 9.36194 2.56881 7.99948L4.45877 8.34598L5.37137 10.4168C5.165 11.0747 5.05345 11.7747 5.05345 12.5Z" fill="#F6DA0A" stroke="#F6DA0A" stroke-width="0.923077"/>
<path d="M22.7185 10.462C22.8437 11.122 22.9091 11.8035 22.9091 12.5C22.9091 13.281 22.827 14.0429 22.6705 14.7777C22.1395 17.2784 20.7518 19.462 18.8296 21.0073L18.829 21.0067L15.7163 20.8479L15.2758 18.0978C16.5513 17.3498 17.5481 16.1791 18.0732 14.7777H12.2398V10.462H18.1583H22.7185Z" fill="#518EF8"/>
<path d="M18.8289 21.0068L18.8295 21.0073C16.96 22.51 14.5852 23.4091 12 23.4091C7.84554 23.4091 4.23356 21.0871 2.39099 17.6699L5.92626 14.776C6.84752 17.2347 9.21936 18.985 12 18.985C13.1952 18.985 14.3149 18.6619 15.2757 18.0979L18.8289 21.0068Z" fill="#28B446"/>
<path d="M18.9632 4.10242L15.4292 6.99572C14.4348 6.37415 13.2593 6.01509 12 6.01509C9.15642 6.01509 6.74023 7.84564 5.86512 10.3925L2.31127 7.48305H2.31067C4.12627 3.98255 7.7838 1.59094 12 1.59094C14.6469 1.59094 17.0739 2.53381 18.9632 4.10242Z" fill="#F14336"/>
</svg>
