<svg width="40" height="40" viewBox="0 0 40 40" fill="none" xmlns="http://www.w3.org/2000/svg">
<path d="M22.4862 3.51052C22.3611 3.31135 22.3308 3.28127 22.1359 3.16854C21.8676 3.01291 21.5769 2.90985 21.2798 2.82878C20.1888 2.53051 19.0707 2.40321 17.9457 2.32358C17.8903 2.31962 17.8339 2.32912 17.7574 2.33371C17.8002 2.42538 17.8433 2.49472 17.865 2.57024C17.9011 2.69754 17.9518 2.80536 18.0656 2.88816C18.1516 2.95022 18.206 3.04743 18.2086 3.16111C18.2087 3.17916 18.1905 3.19783 18.1805 3.21731C18.1027 3.1828 18.0247 3.14828 17.9262 3.10458C17.9262 3.18849 17.9262 3.23853 17.9262 3.30011C17.854 3.25103 17.7981 3.21256 17.7432 3.17488C17.5489 3.39732 17.5097 3.4206 17.2265 3.40128C17.0616 3.38988 16.8989 3.35204 16.7345 3.33193C16.6823 3.32544 16.6157 3.30249 16.5894 3.36867C16.5894 3.39131 16.5847 3.40524 16.5897 3.41315C16.6277 3.47237 16.666 3.53158 16.7074 3.58842C17.1969 4.26208 17.2806 4.99178 17 5.76424C16.8123 6.28005 16.5287 6.7387 16.1136 7.10823C15.9805 7.22697 15.9169 7.36851 15.9067 7.54029C15.8931 7.76717 15.9351 7.9855 16.0166 8.19607C16.0351 8.24467 16.076 8.28488 16.1043 8.32541C16.2504 8.27808 16.3188 8.17881 16.3848 8.08366C16.5389 7.8609 16.7005 7.64098 16.8313 7.40477C17.095 6.92885 17.4065 6.48571 17.7403 6.05745C18.1381 5.54544 18.5528 5.04561 18.9487 4.53138C19.1227 4.30609 19.3336 4.15331 19.6093 4.08571C20.0805 3.96981 20.5496 3.84253 21.0246 3.74468C21.3921 3.66885 21.7593 3.55992 22.1472 3.64224C22.2709 3.66853 22.4052 3.6318 22.4862 3.51052ZM23.1423 5.00129C22.7572 5.05337 22.3755 5.04783 22.0153 5.19523C21.5553 5.38316 21.0923 5.56601 20.6234 5.73146C20.3007 5.84529 20.0332 6.02642 19.8061 6.27483C19.2674 6.86442 18.8703 7.54536 18.5082 8.24926C18.4921 8.28029 18.4855 8.31623 18.4742 8.34948C18.2487 9.0157 17.8911 9.60671 17.4365 10.1431C17.244 10.3698 17.0835 10.6128 17.0289 10.9148C17.0014 11.0642 16.946 11.2089 16.8967 11.3536C16.863 11.4527 16.8241 11.5435 16.7246 11.6106C16.5486 11.7293 16.4777 11.9119 16.4454 12.1209C16.3963 12.4459 16.3408 12.7717 16.2575 13.0896C16.1696 13.4253 16.2025 13.7383 16.3312 14.0541C16.4744 14.4064 16.6906 14.7158 16.8938 15.033C16.9795 15.1668 17.0722 15.1945 17.2317 15.1363C17.3423 15.0964 17.4504 15.0438 17.5488 14.9803C17.9907 14.6947 18.4694 14.4902 18.9784 14.366C19.8281 14.1585 20.6505 14.1718 21.3814 14.739C21.3905 14.7462 21.4003 14.7533 21.4108 14.759C21.6272 14.8806 21.8408 14.9211 22.0864 14.8139C22.4006 14.6771 22.7245 14.5574 23.0529 14.4594C23.7791 14.243 24.5089 14.0372 25.2413 13.8418C25.6754 13.7259 26.1175 13.6381 26.556 13.5369C26.6956 13.5046 26.746 13.3969 26.6512 13.31C26.2605 12.9535 26.0743 12.4834 25.8995 12.0069C25.6839 11.4201 25.528 10.8158 25.4092 10.2039C25.2798 9.53452 25.1776 8.86006 25.0538 8.18941C25.0179 7.99467 24.9623 7.80073 24.8909 7.61613C24.8382 7.4787 24.7512 7.44498 24.6018 7.49755C24.3614 7.58257 24.1303 7.54156 23.9053 7.46509C23.6478 7.37785 23.4974 7.18834 23.476 6.91349C23.4554 6.65116 23.4843 6.39848 23.6312 6.16764C23.8155 5.87839 23.794 5.56237 23.736 5.24462C23.7144 5.12714 23.6365 5.05575 23.5216 5.03754C23.3935 5.01696 23.2629 5.01205 23.1423 5.00129ZM11.8497 6.43916C11.9316 6.12632 12.0142 5.8331 12.0837 5.53688C12.1302 5.33977 12.0894 5.1387 12.0462 4.94808C12.0097 4.7877 12.0265 4.65788 12.0936 4.50937C12.2146 4.24197 12.3255 3.96728 12.4084 3.68642C12.5651 3.15857 12.9139 2.82087 13.4127 2.616C13.6895 2.50249 13.9792 2.44723 14.2785 2.43298C14.4196 2.42649 14.5598 2.4086 14.7075 2.3953C14.7451 2.30822 14.7773 2.2346 14.808 2.16035C15.0372 1.60258 15.3378 1.0825 15.6596 0.573647C15.6968 0.513962 15.7448 0.460766 15.7888 0.405354C16.0441 0.085701 16.3495 -0.0518837 16.7817 0.0176201C17.5945 0.148552 18.3796 0.367985 19.1492 0.645683C19.7056 0.846752 20.2498 1.08217 20.7994 1.30145C21.2287 1.4726 21.6577 1.64216 22.1321 1.65071C22.2996 1.65372 22.4545 1.71135 22.5911 1.82012C22.6617 1.8768 22.7519 1.92382 22.8406 1.94171C23.4753 2.07074 24.0572 2.33118 24.6224 2.63421C24.6743 2.66175 24.7283 2.68614 24.7778 2.71036C24.8491 2.65891 24.9131 2.60967 24.9807 2.56645C24.9973 2.556 25.0265 2.56502 25.0568 2.56502C25.1535 2.62407 25.1599 2.73822 25.1998 2.83211C25.2474 2.94357 25.3055 3.03619 25.4292 3.08352C25.6045 3.15129 25.7067 3.29631 25.8021 3.4768C25.7519 3.57465 25.6516 3.67233 25.7219 3.8145C25.7813 3.93499 25.701 4.03916 25.629 4.14476C25.681 4.2331 25.7379 4.3205 25.7845 4.41311C25.8457 4.5336 25.7042 4.59756 25.6881 4.71599C26.1311 5.33962 26.302 6.06916 26.4306 6.81501C26.4665 7.02258 26.5309 7.22602 26.5901 7.42899C26.6472 7.62167 26.742 7.79345 26.8663 7.95668C27.0156 8.15284 27.1463 8.36673 27.2583 8.58648C27.6269 9.31065 27.9842 10.0408 28.3443 10.7693C28.3753 10.8324 28.4034 10.8983 28.4236 10.9654C28.5218 11.2959 28.6812 11.5979 28.8634 11.8877C29.0208 12.137 29.1877 12.3805 29.3543 12.6234C29.5961 12.9755 29.8021 13.3444 29.9173 13.7579C29.9907 14.0215 30.0216 14.2877 29.9839 14.5608C29.9133 15.0737 29.65 15.4664 29.1995 15.717C28.8467 15.9135 28.5127 16.1326 28.1854 16.3677C27.9267 16.5536 27.6501 16.7168 27.371 16.8721C26.253 17.4938 25.0915 18.0309 23.9297 18.5655C23.7146 18.6645 23.4978 18.7603 23.28 18.8537C23.1257 18.9197 23.0422 19.0177 23.0276 19.1979C22.9968 19.5851 22.9104 19.9635 22.7858 20.3333C22.6488 20.7405 22.6045 21.1645 22.6475 21.5884C22.7087 22.1914 22.6628 22.7897 22.601 23.3856C22.5127 24.2392 22.3838 25.0885 22.2691 25.9395C22.2549 26.044 22.23 26.1479 22.1969 26.2481C21.9447 27.0144 21.9367 27.7995 22.0168 28.5886C22.0476 28.8919 22.1 29.1956 22.1736 29.4915C22.3279 30.1143 22.379 30.7441 22.3634 31.3822C22.3319 32.6897 22.0359 33.944 21.579 35.1654C21.2632 36.0096 21.0616 36.8767 21.0605 37.7823C21.06 38.2336 21.1219 38.6738 21.287 39.0962C21.2913 39.1072 21.2961 39.1183 21.2999 39.1297C21.4574 39.6013 21.287 39.892 20.7984 39.9692C20.4311 40.027 20.0674 39.9998 19.7042 39.9176C19.4975 39.8706 19.2835 39.835 19.072 39.8294C18.5739 39.8165 18.0751 39.8214 17.5764 39.8267C17.229 39.8301 16.8907 39.78 16.5592 39.6795C16.4932 39.6594 16.4324 39.6224 16.3463 39.5825C16.3879 39.5131 16.4081 39.434 16.4571 39.407C16.5906 39.3341 16.7337 39.2756 16.8781 39.2265C16.9917 39.1874 17.0936 39.1461 17.1821 39.0579C17.5534 38.6868 17.989 38.4 18.4619 38.1754C18.747 38.0396 18.9351 37.8306 19.066 37.5558C19.2608 37.147 19.3504 36.7088 19.414 36.2656C19.4822 35.7873 19.5079 35.3092 19.4544 34.8238C19.395 34.2836 19.4662 33.7424 19.5323 33.2049C19.5913 32.727 19.6735 32.251 19.7289 31.7724C19.8324 30.8768 19.7583 29.9866 19.6248 29.0995C19.6125 29.0194 19.5785 28.9424 19.5505 28.865C19.4544 28.6 19.3486 28.3381 19.2611 28.0701C19.138 27.6903 18.9992 27.3119 18.9189 26.9222C18.807 26.382 18.7206 25.8341 18.663 25.2849C18.5676 24.3726 18.5001 23.4567 18.4293 22.5421C18.4111 22.3083 18.4228 22.072 18.4277 21.8371C18.4351 21.4839 18.4434 21.1311 18.355 20.7841C18.3052 20.5884 18.2372 20.4009 18.1204 20.2347C17.9575 20.0028 17.746 19.8481 17.4501 19.8204C16.9372 19.7724 16.449 19.6298 15.9877 19.404C15.8839 19.3529 15.7788 19.2856 15.7037 19.2001C15.3985 18.8519 15.0548 18.5442 14.6877 18.2647C14.1322 17.8425 13.5732 17.4239 13.0009 17.0247C12.148 16.4301 11.5283 15.6676 11.2051 14.6789C11.1278 14.4433 11.0725 14.2069 11.0848 13.9531C11.1003 13.6387 10.9748 13.3537 10.8315 13.0817C10.7904 13.0034 10.6983 12.9517 10.6331 12.8848C10.4929 12.742 10.3381 12.6098 10.2193 12.451C9.97444 12.1245 9.94569 11.7591 10.0783 11.3783C10.1573 11.1526 10.2865 10.9559 10.4387 10.7739C10.6368 10.5372 10.8617 10.3279 11.1158 10.1515C11.3036 10.0212 11.4558 9.85924 11.5804 9.66988C11.893 9.19302 12.1064 8.6704 12.2985 8.1378C12.3062 8.11579 12.3182 8.09172 12.3162 8.06972C12.2953 7.8278 12.2722 7.58621 12.249 7.34414C12.2479 7.33289 12.2447 7.31959 12.2378 7.31089C12.0985 7.13673 12.0706 6.93487 12.0703 6.71971C12.0703 6.66082 12.0129 6.59733 11.9709 6.54461C11.9367 6.50107 11.8863 6.47035 11.8497 6.43916Z" fill="#9DE348"/>
</svg>
